<?xml version="1.0" encoding="UTF-8"?>
<svg id="Layer_2" data-name="Layer 2" xmlns="http://www.w3.org/2000/svg" viewBox="0 0 143.82 131.06">
  <defs>
    <style>
      .cls-1 {
        fill: red;
      }
    </style>
  </defs>
  <g id="Layer_1-2" data-name="Layer 1">
    <g id="_0xlO8g.tif" data-name="0xlO8g.tif">
      <path class="cls-1" d="M107.82.75c.38,0,.72.01,1.03.03,18.23,1.21,32.86,15.35,34.03,32.89,1.72,25.86-7.87,39.9-26.18,56.75-6.29,5.79-12.89,11.46-19.28,16.96-6.02,5.18-12.25,10.54-18.22,15.98-.23.21-.71.68-1.34,1.29-1.36,1.33-4.76,4.64-5.93,5.5-2.65-2.38-5.3-4.83-7.88-7.2-3.1-2.86-6.31-5.81-9.51-8.66-3.84-3.41-7.82-6.8-11.66-10.08-5.23-4.46-10.64-9.07-15.77-13.8C8.81,73.53-.78,59.48.95,33.67,2.11,16.13,16.74,1.99,34.92.78h4.47l6.71,1.11c8.06,2.09,15.54,6.97,21.06,13.73.77.94,1.45,1.98,2.11,2.98.5.77,1.03,1.57,1.58,2.32.02.03.03.05.05.08.12.2.41.67,1.04.67.09,0,.18-.01.31-.04.36-.1.45-.21,1.58-2.04.26-.42.53-.85.63-.99,6.4-8.85,14.31-14.49,23.49-16.76l6.48-1.06c.26.01.51.01.77.01.45,0,.89-.01,1.34-.03.43-.01.87-.02,1.3-.02M107.82,0c-.88,0-1.76.05-2.64.05-.27,0-.54,0-.82-.02l-6.59,1.08c-10.09,2.49-17.96,8.78-23.95,17.06-.31.43-1.64,2.7-1.79,2.74-.04,0-.08.01-.11.01-.26,0-.35-.25-.48-.43-1.29-1.73-2.33-3.65-3.72-5.34-5.48-6.72-13.04-11.81-21.48-13.99L39.45.03h-4.53C16.85,1.23,1.43,15.15.2,33.62c-1.75,26.17,8.22,40.56,26.41,57.35,8.9,8.21,18.39,15.84,27.44,23.89,5.99,5.32,11.8,10.85,17.77,16.2,0,0,0,0,.02,0,.68,0,6.87-6.23,7.87-7.15,12.28-11.21,25.27-21.69,37.5-32.94,18.2-16.75,28.16-31.23,26.42-57.35C142.4,15.14,126.98,1.23,108.9.03,108.54,0,108.18,0,107.82,0h0Z"/>
    </g>
  </g>
</svg>